<svg xmlns="http://www.w3.org/2000/svg" width="120.837" height="94.707" viewBox="0 0 120.837 94.707">
  <path fill="rgb(212,45,15)" fill-rule="evenodd" d="M119.16377007 31.67402937L89.16320505 1.67346435C87.48923845 0 84.77563465.00050224 83.1021703 1.67446883c-.8033332.80358432-1.25459603 1.89294331-1.25484715 3.02926177v12.85734913H51.84675814c-2.36705806 0-4.28586675 1.91880869-4.28586675 4.28586675 0 2.36705807 1.91880869 4.28586676 4.28586675 4.28586676h34.28643178c2.36705806 0 4.28586675-1.9188087 4.28586675-4.28586676V15.0493765l19.654668 19.654668-19.654668 19.65466802v-6.79731888c0-2.36705806-1.91880869-4.28586675-4.28586675-4.28586675H38.989409V30.41817775c-.00050224-2.36705807-1.91981317-4.28536451-4.28662011-4.28486227-1.13606734.00025112-2.22567745.45151394-3.02926177 1.25484714L1.67321323 57.38872764C0 59.0624431 0 61.77529354 1.67321323 63.4487579l30.00056502 30.00056502c.80358432.80383544 1.89344555 1.2556005 3.03001513 1.25585162.56326238.00175784 1.12150237-.10898612 1.64132097-.32570277 1.60114176-.66396155 2.6447969-2.22668193 2.64429466-3.96016398V77.56195865h30.00056502c2.36705807 0 4.28586675-1.91880868 4.28586675-4.28586675 0-2.36705806-1.91880868-4.28586675-4.28586675-4.28586675H34.70379338c-2.36705807 0-4.28586675 1.91880869-4.28586675 4.28586675v6.79731888L10.76325862 60.41874277l19.654668-19.65466801v6.79731887c0 2.36705807 1.9188087 4.28586675 4.28586676 4.28586675h47.14352978v12.85734914c.00050224 2.36705806 1.91981317 4.28536451 4.28662012 4.28486227 1.13606733-.00025112 2.22567744-.45151394 3.02926177-1.25484714l30.00056502-30.00056502c1.6729621-1.67371547 1.6729621-4.38656591 0-6.06003026z"/>
</svg>
