<svg xmlns="http://www.w3.org/2000/svg" xmlns:xlink="http://www.w3.org/1999/xlink" width="120" height="120" viewBox="0 0 120 120">
  <defs>
    <rect id="rect-1" width="120" height="120" x="0" y="0"/>
    <mask id="mask-2" maskContentUnits="userSpaceOnUse" maskUnits="userSpaceOnUse">
      <rect width="120" height="120" x="0" y="0" fill="black"/>
      <use fill="white" xlink:href="#rect-1"/>
    </mask>
  </defs>
  <g>
    <use fill="none" xlink:href="#rect-1"/>
    <g mask="url(#mask-2)">
      <path fill="rgb(212,45,15)" fill-rule="evenodd" d="M64.87640625 105.9375h-9.75304688c-1.29445312 0-2.34375 1.04953125-2.34375 2.34375s1.04929688 2.34375 2.34375 2.34375h9.75304688c1.29445312 0 2.34375-1.04953125 2.34375-2.34375s-1.04929688-2.34375-2.34375-2.34375z"/>
      <path fill="rgb(212,45,15)" fill-rule="evenodd" d="M106.875 18.75024414H92.8125v-5.09082031C95.54040527 12.69189453 97.5 10.08691406 97.5 7.03125 97.5 3.15429687 94.3458252 0 90.46875 0h-60.9375C25.6541748 0 22.5 3.15429688 22.5 7.03125c0 3.05541992 1.95959473 5.66064453 4.6875 6.62817383v5.09082031H13.125c-1.2944336 0-2.34375 1.04956055-2.34375 2.34375v16.40625c0 10.33862305 8.41125488 18.75 18.75 18.75h1.98168945c.45043946.78515625.93188477 1.5559082 1.4498291 2.30810547 3.31750489 4.81567383 7.79504395 8.62304687 13.02416993 11.10766601-.03161621.27001954-.04968262.54418946-.04968262.82275391 0 3.28393555 2.26342773 6.04858399 5.31188965 6.81738281C48.43286133 86.68945313 43.42822266 96.5625 37.5 96.5625h-5.625c-1.18200684 0-2.17895508.88012695-2.3256836 2.05322266l-2.34375 18.75c-.08349609.66699218.1237793 1.33764648.56860352 1.84155273C28.21899414 119.71118164 28.8590088 120 29.53125 120h60.9375c.67224121 0 1.31225586-.28857422 1.75708008-.7927246.44482422-.50390626.6520996-1.1748047.56860351-1.84155274l-2.34375-18.75C90.30419922 97.44262696 89.30712891 96.5625 88.125 96.5625H82.5c-3.5880127 0-6.6196289-3.76757813-8.53100586-6.92871094-2.45629883-4.06176758-4.17163086-8.84643554-5.21765137-12.328125C71.79931641 76.5366211 74.0625 73.7722168 74.0625 70.48828125c0-.27832031-.0180664-.55249023-.04968262-.8227539 5.23010254-2.48486329 9.70800782-6.2932129 13.02563477-11.10961915.51745605-.7512207.99816894-1.52148437 1.44836426-2.30566406H90.46875c10.33874512 0 18.75-8.41137695 18.75-18.75v-16.40625c0-1.29418945-1.0493164-2.34375-2.34375-2.34375zM71.94091797 65.46166992c-1.26818848-1.23901367-3.00073242-2.00439453-4.90966797-2.00439453h-14.0625c-1.9086914 0-3.64123535.765625-4.90942383 2.00463867C38.1781006 60.80908203 31.875 50.9909668 31.875 40.01953125V14.0625h17.57739258c1.2944336 0 2.34375-1.04956055 2.34375-2.34375s-1.0493164-2.34375-2.34375-2.34375H29.53125c-1.2923584 0-2.34375-1.05151367-2.34375-2.34375s1.0513916-2.34375 2.34375-2.34375h60.9375c1.2923584 0 2.34375 1.05151367 2.34375 2.34375S91.7611084 9.375 90.46875 9.375H70.54614258c-1.2944336 0-2.34375 1.04956055-2.34375 2.34375s1.0493164 2.34375 2.34375 2.34375H88.125v25.95703125c0 10.97070313-6.30310059 20.78930664-16.18408203 25.44213867zM15.46875 37.50024414v-14.0625H27.1875v16.58178711c0 3.97973633.72192383 7.8737793 2.10864258 11.53735352C21.65063477 51.43041992 15.46875 45.1755371 15.46875 37.50024414zm75.23510742 14.05664063C98.34936523 51.43041992 104.53125 45.1755371 104.53125 37.50024414v-14.0625H92.8125v16.58178711c0 3.97973633-.72180176 7.8737793-2.10864258 11.53735352zM52.96875 72.83203125h14.0625c1.2923584 0 2.34375-1.05126953 2.34375-2.34350586 0-1.29223633-1.0513916-2.34375-2.34375-2.34375h-14.0625c-1.2923584 0-2.34375 1.05126953-2.34375 2.34350586 0 1.29223633 1.0513916 2.34375 2.34375 2.34375zM73.26049805 96.5625h-26.5209961c1.13879395-1.24829102 2.23706055-2.7434082 3.29174805-4.48535156 2.9958496-4.94750977 4.96264648-10.77685547 6.03796387-14.55761719h7.86096191c1.07653809 3.78466797 3.03918457 9.59887695 6.02722168 14.54003906C71.015625 93.80908203 72.11767578 95.3100586 73.26049805 96.5625zm-41.0744629 18.75H87.8137207L86.0559082 101.25H33.94384766l-1.7578125 14.0625z"/>
      <path fill="rgb(212,45,15)" fill-rule="evenodd" d="M60 14.0625c1.29445313 0 2.34375-1.04953125 2.34375-2.34375S61.29445313 9.375 60 9.375h-.001875c-1.29445312 0-2.3428125 1.04953125-2.3428125 2.34375S58.70554688 14.0625 60 14.0625z"/>
      <path fill="rgb(212,45,15)" fill-rule="evenodd" d="M62.59851563 44.71875H62.34375V28.31296875c0-.8371875-.44671875-1.61109375-1.171875-2.0296875-.72492187-.41859375-1.61835937-.41882812-2.34375 0l-2.59851562 1.5c-1.12101563.64710938-1.50515625 2.08054688-.85804688 3.2015625.4790625.82992188 1.38890625 1.25484375 2.2846875 1.15851563V44.71875h-.25476562c-1.29445313 0-2.34375 1.04953125-2.34375 2.34375s1.04929687 2.34375 2.34375 2.34375h5.19679687c1.29445313 0 2.34375-1.04953125 2.34375-2.34375s-1.0490625-2.34375-2.34351562-2.34375z"/>
    </g>
  </g>
</svg>
