<svg xmlns="http://www.w3.org/2000/svg" xmlns:xlink="http://www.w3.org/1999/xlink" width="56" height="56" viewBox="0 0 56 56">
  <defs>
    <rect id="rect-1" width="56" height="56" x="0" y="0"/>
    <mask id="mask-2" maskContentUnits="userSpaceOnUse" maskUnits="userSpaceOnUse">
      <rect width="56" height="56" x="0" y="0" fill="black"/>
      <use fill="white" xlink:href="#rect-1"/>
    </mask>
  </defs>
  <g>
    <use fill="none" xlink:href="#rect-1"/>
    <g mask="url(#mask-2)">
      <path fill="rgb(255,255,255)" fill-rule="evenodd" d="M28 0C12.53839111 0 0 12.53839111 0 28s12.53839111 28 28 28 28-12.53839111 28-28S43.46160889 0 28 0zm12.78448486 21.8314209c.01239014.27557373.01837159.5524292.01837159.8305664 0 8.49237061-6.4642334 18.28527833-18.28570557 18.28570557-3.62945557 0-7.00683594-1.06384277-9.85101318-2.88690185.50286865.0593872 1.01470947.08886718 1.53295898.08886718 3.01123047 0 5.78234863-1.0270996 7.98223877-2.7510376-2.81341553-.05212402-5.18548584-1.91021728-6.00408936-4.46386718.39178467.07519531.79467774.11621094 1.20782471.11621094.58660889 0 1.1548462-.07904053 1.69488525-.22644043-2.94073486-.58874512-5.15600585-3.18768311-5.15600585-6.29974366 0-.02905273 0-.05511474.00085449-.08203125.86602783.48150635 1.85638427.7711792 2.91082763.8036499-1.72564697-1.15142822-2.85998535-3.11975097-2.85998535-5.34954833 0-1.17749024.31829834-2.28063965.8703003-3.23040772 3.16931152 3.88879395 7.90576171 6.44628906 13.24719238 6.71502686-.1102295-.4708252-.16705322-.96130371-.16705322-1.4654541 0-3.54785157 2.87835693-6.4262085 6.42749023-6.4262085 1.84869385 0 3.51837158.7814331 4.69116211 2.03070068 1.46417236-.28881836 2.8390503-.82373047 4.08105469-1.55987549-.48065186 1.50006104-1.49920655 2.75872803-2.82623291 3.5546875 1.30010986-.15551757 2.53912353-.50030517 3.69055175-1.012146-.86004638 1.28900147-1.95080566 2.42120362-3.20562744 3.32824708z"/>
    </g>
  </g>
</svg>
