<svg xmlns="http://www.w3.org/2000/svg" xmlns:xlink="http://www.w3.org/1999/xlink" width="56" height="56" viewBox="0 0 56 56">
  <defs>
    <rect id="rect-1" width="56" height="56" x="0" y="0"/>
    <mask id="mask-2" maskContentUnits="userSpaceOnUse" maskUnits="userSpaceOnUse">
      <rect width="56" height="56" x="0" y="0" fill="black"/>
      <use fill="white" xlink:href="#rect-1"/>
    </mask>
  </defs>
  <g>
    <use fill="none" xlink:href="#rect-1"/>
    <g mask="url(#mask-2)">
      <path fill="rgb(255,255,255)" fill-rule="evenodd" d="M22.89784143 34.13679795c4.20157545-2.17870076 8.36648594-4.33735038 12.56978005-6.51719693-4.2158977-2.1998977-8.3796624-4.3711509-12.56978005-6.55787212v13.07506905z"/>
      <path fill="rgb(255,255,255)" fill-rule="evenodd" d="M0 28C0 12.5359497 12.53656006 0 28 0s28 12.5359497 28 28c0 15.46398926-12.53656006 28-28 28S0 43.46398926 0 28zm42.8034668 13.23028564c2.06985473-.230896 3.78967285-1.78167724 4.27435302-3.8842163.68917847-2.9944458.69088746-6.2633667.69088746-9.34606934v-.07574463c.00006103-3.06048584.00009155-6.30047607-.68344117-9.27038574-.4835205-2.10308838-2.20333862-3.65393067-4.27435302-3.88537598-4.90164185-.54766845-9.86401368-.5505371-14.80404663-.54766845-4.94116211-.00286866-9.90353394 0-14.80691529.54766845-2.06985473.23144531-3.78851318 1.78283692-4.27203369 3.88537598C8.23873901 21.6477661 8.23071289 24.91723633 8.23071289 28c0 3.08270264 0 6.35101318.68917847 9.34606934.4835205 2.10253906 2.20220947 3.6533203 4.2720642 3.8842163 4.90335084.54827881 9.86572266.55114747 14.80688477.54827881 4.94119263.00286866 9.90240479 0 14.80462647-.5482788z"/>
    </g>
  </g>
</svg>
