<svg xmlns="http://www.w3.org/2000/svg" xmlns:xlink="http://www.w3.org/1999/xlink" width="56" height="56" viewBox="0 0 56 56">
  <defs>
    <rect id="rect-1" width="56" height="56" x="0" y="0"/>
    <mask id="mask-2" maskContentUnits="userSpaceOnUse" maskUnits="userSpaceOnUse">
      <rect width="56" height="56" x="0" y="0" fill="black"/>
      <use fill="white" xlink:href="#rect-1"/>
    </mask>
  </defs>
  <g>
    <use fill="none" xlink:href="#rect-1"/>
    <g mask="url(#mask-2)">
      <path fill="rgb(255,255,255)" fill-rule="evenodd" d="M33.359375 28c0 2.95996094-2.39941406 5.359375-5.359375 5.359375S22.640625 30.95996094 22.640625 28 25.04003906 22.640625 28 22.640625 33.359375 25.04003906 33.359375 28z"/>
      <path fill="rgb(255,255,255)" fill-rule="evenodd" d="M39.33099365 16.66900635c.53405762.51867676.94506836 1.15057373 1.20269776 1.84869385.22045898.56652832.48236084 1.41802978.55371093 2.9855957.07733155 1.6953125.0935669 2.20373535.0935669 6.49713135 0 4.29296875-.01623535 4.8013916-.0935669 6.49713134-.07177734 1.56756592-.3336792 2.41864014-.55371093 2.98516846-.54089356 1.40222168-1.64916993 2.51049805-3.0513916 3.0513916-.56652833.22045899-1.41802979.48236084-2.9855957.55371094-1.69488526.07733154-2.20330811.0935669-6.49713136.0935669-4.293396 0-4.8013916-.01623536-6.4967041-.0935669-1.56756592-.0713501-2.41906738-.33325195-2.9855957-.55371094-.69854736-.2576294-1.3300171-.66864013-1.84869385-1.20269775-.53405762-.51867676-.94464111-1.15014649-1.20269775-1.84869385-.22003174-.56652832-.4819336-1.41760254-.5532837-2.98516846-.07733154-1.69573974-.09399413-2.2041626-.09399413-6.49713134 0-4.293396.0166626-4.80181885.09399414-6.49713135.0713501-1.56756592.33325195-2.41906738.55328369-2.9855957.25805664-.69854737.66906738-1.3300171 1.203125-1.84869385.5182495-.53405762 1.15014648-.94506836 1.84869385-1.20269776.56610107-.22003173 1.41760253-.48193359 2.98516845-.55371093 1.6953125-.07733155 2.20373535-.0935669 6.49713135-.0935669 4.29296875 0 4.8013916.0166626 6.49713135.09399414 1.56756592.0713501 2.41864013.33325196 2.98516845.5532837.69854737.25762939 1.3300171.66864013 1.84869385 1.20269775zm-2.74847412 4.67791748c-1.06555176 0-1.92944336-.8638916-1.92944336-1.92944336s.8638916-1.92944336 1.92944336-1.92944336 1.92944336.8638916 1.92944336 1.92944336c-.00042725 1.06555176-.8638916 1.92944336-1.92944336 1.92944336zM19.74346923 28c0 4.55999756 3.69653321 8.25610352 8.25653077 8.25610352 4.55957031 0 8.25610352-3.69610596 8.25610352-8.25610352 0-4.55999756-3.6965332-8.25610352-8.25610352-8.25610352-4.55999756 0-8.25653076 3.69610596-8.25653076 8.25610352z"/>
      <path fill="rgb(255,255,255)" fill-rule="evenodd" d="M28 0C12.53839111 0 0 12.53839111 0 28s12.53839111 28 28 28 28-12.53839111 28-28S43.46160889 0 28 0zm15.98114014 34.62872314c-.0777588 1.71154786-.34991455 2.88006592-.74725342 3.90289307-.83526611 2.159729-2.5425415 3.8670044-4.7022705 4.7022705-1.02239991.39733888-2.19134522.6690674-3.90246583.74725343-1.71453857.07818603-2.26226807.09698486-6.62872314.09698486-4.36688233 0-4.91418457-.01879883-6.6291504-.09698486-1.7111206-.07818604-2.88006591-.34991455-3.90246581-.74725342-1.0732422-.40374756-2.04479981-1.03649902-2.84802247-1.8546753-.81774902-.8027954-1.45050048-1.77478027-1.85424804-2.8475952-.39733887-1.02239991-.66949463-2.19134522-.74725342-3.90246583C11.94024658 32.91418457 11.921875 32.36645508 11.921875 28c0-4.36645508.01837158-4.91418457.09698486-6.62872314.0777588-1.71154786.3494873-2.88006592.74682618-3.90289307.40374755-1.07281494 1.03692626-2.0447998 1.85510253-2.84759522.80279541-.81817627 1.77478028-1.45092773 2.84759522-1.85467529 1.02282715-.39733887 2.19134521-.66906738 3.90289307-.74725342C23.08581543 11.94067383 23.63354492 11.921875 28 11.921875s4.91418457.01879883 6.62872314.0974121c1.71154786.0777588 2.88006592.34948731 3.90289307.74639894 1.07281494.40374755 2.0447998 1.03692626 2.84802246 1.85510253.81774903.80322266 1.45092774 1.77478028 1.85424805 2.84759522.39776611 1.02282715.66949463 2.19134521.74768066 3.90289307C44.05975342 23.08581543 44.078125 23.63354492 44.078125 28s-.01837158 4.91418457-.09698486 6.62872314z"/>
    </g>
  </g>
</svg>
