<svg xmlns="http://www.w3.org/2000/svg" xmlns:xlink="http://www.w3.org/1999/xlink" width="130.9" height="66.5" viewBox="0 0 130.9 66.5">
  <defs>
    <rect id="rect-1" width="130.9" height="66.5" x="0" y="0"/>
    <mask id="mask-2" maskContentUnits="userSpaceOnUse" maskUnits="userSpaceOnUse">
      <rect width="130.9" height="66.5" x="0" y="0" fill="black"/>
      <use fill="white" xlink:href="#rect-1"/>
    </mask>
  </defs>
  <g>
    <use fill="none" xlink:href="#rect-1"/>
    <g mask="url(#mask-2)">
      <path fill="rgb(255,255,255)" fill-rule="evenodd" d="M6.59018345 56.23752304h117.71963302c3.61468798 0 6.59018891-2.90734293 6.59018891-6.48727768V6.48727561C130.90000538 2.90734086 127.94653982 0 124.30981647 0H6.59018345C2.95346009 0 0 2.90734086 0 6.48727561v43.26296975c0 3.57993475 2.9534601 6.48727768 6.59018345 6.48727768zM1.34448558 6.48727561c0-2.8422513 2.35835985-5.1637846 5.24569787-5.1637846h117.71963302c2.88733255 0 5.24569524 2.3215333 5.24569524 5.1637846v43.26296975c0 2.84225255-2.35836269 5.16378533-5.24569524 5.16378533H6.59018345c-2.88733802 0-5.24569787-2.32153278-5.24569787-5.16378533V6.48727561z"/>
      <path fill="rgb(255,255,255)" fill-rule="evenodd" d="M24.3550261 6.07504078c-1.69713757 0-3.08570467 1.3451876-3.08570467 3.0375204v31.5685155c0 1.88760195-1.54285233 3.40636215-3.46039737 3.40636215-1.91754504 0-3.46039737-1.5187602-3.46039737-3.40636216 0-1.67063621-1.36652635-3.03752039-3.08570467-3.03752039-1.69713756 0-3.08570466 1.3451876-3.08570466 3.0375204 0 5.22887438 4.29794578 9.45970635 9.60976595 9.45970635 5.31182018 0 9.60976596-4.23083197 9.60976596-9.45970636V9.11256117c.02204075-1.67063621-1.3444856-3.03752039-3.04162317-3.03752039z"/>
      <g>
        <path fill="rgb(255,255,255)" fill-rule="evenodd" d="M97.66255262 37.64355628c-1.69713757 0-3.08570467 1.3451876-3.08570467 3.0375204 0 1.88760195-1.54285233 3.40636215-3.46039737 3.40636215-1.91754504 0-3.46039737-1.5187602-3.46039737-3.40636216V9.11256117c0-1.67063621-1.36652635-3.03752039-3.08570467-3.03752039-1.7191783 0-3.08570466 1.3451876-3.08570466 3.0375204v31.5685155c0 5.22887438 4.29794578 9.45970635 9.60976595 9.45970635 5.31182018 0 9.60976596-4.23083197 9.60976596-9.45970636.02204074-1.67063621-1.3444856-3.03752039-3.04162317-3.03752039z"/>
        <path fill="rgb(255,255,255)" fill-rule="evenodd" d="M113.0690352 6.07504078c-5.31182018 0-9.60976596 4.23083198-9.60976596 9.45970637v31.5685155c0 1.6706362 1.36652635 3.03752038 3.08570466 3.03752038 1.71917831 0 3.08570467-1.3451876 3.08570467-3.03752039V32.13262643c1.91754504-.5858075 3.30611214-2.34323002 3.30611214-4.42610114 0-2.08287113-1.3885671-3.84029364-3.30611214-4.42610115v-7.72398042c0-1.88760196 1.54285233-3.40636215 3.46039737-3.40636215 1.91754504 0 3.46039737 1.5187602 3.46039737 3.40636215 0 1.67063621 1.36652635 3.0375204 3.08570467 3.0375204 1.69713756 0 3.08570466-1.34518761 3.08570466-3.0375204-.02204075-5.22887439-4.31998653-9.48140294-9.65384745-9.48140294z"/>
        <path fill="rgb(255,255,255)" fill-rule="evenodd" d="M43.6186395 6.07504078c-5.44406466 0-9.85221418 4.2959217-9.98445866 9.61158238v24.71239805c.06612224 5.3807504 4.4963125 9.72006525 9.98445866 9.72006525 5.5101869 0 9.98445866-4.40440457 9.98445866-9.82854812l-.02204074-11.21712888c-.19836673-2.58189233-2.38040074-4.6213703-5.0473312-4.6213703-2.79917495 0-5.06937195 2.23474714-5.06937195 4.99021206 0 2.25644372 1.52081158 4.16574225 3.6146826 4.77324633v6.18352366c0 1.88760195-1.54285233 3.40636215-3.46039737 3.40636215-1.91754504 0-3.46039737-1.5187602-3.46039737-3.40636215V15.70831974c0-1.88760196 1.54285233-3.40636215 3.46039737-3.40636215 1.91754504 0 3.46039737 1.5187602 3.46039737 3.40636215l.02204075 1.90929853c.088163 1.69233279 1.49877084 3.0375204 3.2399899 3.0375204s3.1518269-1.34518761 3.2399899-3.0375204h.02204074v-1.69233279c0-5.44584013-4.47427176-9.8502447-9.98445866-9.8502447z"/>
      </g>
      <g>
        <path fill="rgb(255,255,255)" fill-rule="evenodd" d="M15.11995285 64.52561175c0 .54241435-.19836672 1.01973898-.57305943 1.38858075-.39673346.36884176-.85958916.56411093-1.41060785.56411093-.33061121 0-.57305944-.04339315-.77142617-.10848288l.17632598-1.14991843c.13224449.02169657.26448898.04339315.37469271.04339315h.26448898c.19836672-.02169658.3746927-.0867863.50693719-.21696574.13224449-.13017945.22040748-.30375204.22040748-.49902121V58.1685155h1.23428186v6.35709625h-.02204075z"/>
        <path fill="rgb(255,255,255)" fill-rule="evenodd" d="M26.6693046 66.47830343c-.5510187 0-1.03591514-.19526917-1.41060785-.56411093-.39673346-.39053834-.57305944-.8461664-.57305944-1.38858075V58.1685155h1.23428187v6.33539967c0 .19526917.06612224.36884176.22040747.4990212.13224449.13017945.30857047.21696575.5069372.21696575s.3746927-.06508972.5069372-.21696574c.13224448-.13017945.22040747-.30375204.22040747-.4990212V58.1685155h1.32244486v6.35709625c0 .54241435-.19836673 1.01973898-.59510019 1.38858075-.39673346.36884176-.8816299.56411093-1.4326486.56411093z"/>
        <path fill="rgb(255,255,255)" fill-rule="evenodd" d="M42.3182354 64.35203915c0 .56411093-.1322445 1.06313214-.4628557 1.47536705-.19836673.28205546-.48489645.47732463-.85958916.5858075-.19836673.06508973-.44081495.0867863-.70530393.0867863-.48489644 0-.90367065-.13017945-1.23428186-.36884176-.26448897-.19526917-.48489645-.45562806-.63918168-.80277325-.15428524-.34714519-.24244823-.73768352-.28652972-1.171615l1.19020037-.0867863c.0440815.47732463.17632598.82446982.39673346 1.04143556.15428523.1735726.33061121.23866232.52897794.23866232.26448897 0 .48489645-.15187602.66122243-.39053834.08816299-.13017945.13224448-.30375204.13224448-.54241436 0-.34714518-.15428523-.6725938-.4628557-1.01973898-.24244822-.23866232-.61714093-.5858075-1.12407812-1.04143557-.4187742-.39053833-.70530393-.7593801-.8816299-1.06313213-.17632599-.3471452-.28652973-.73768353-.28652973-1.14991844 0-.73768352.26448897-1.32349103.77142617-1.69233279.30857046-.23866231.70530392-.34714519 1.16815962-.34714519.44081495 0 .83754841.10848288 1.14611888.30375204.24244822.15187602.44081495.36884177.59510018.65089723.15428523.28205547.24244823.5858075.28652972.95464927l-1.21224112.21696574c-.0440815-.34714519-.13224448-.60750408-.28652972-.78107667-.11020373-.13017945-.28652972-.19526917-.5069372-.19526917-.22040747 0-.39673345.10848287-.52897793.30375204-.088163.15187602-.15428524.36884176-.15428524.60750408 0 .36884176.15428524.7593801.48489645 1.14991843.13224449.15187602.30857047.32544861.55101869.52071778.28652972.23866232.48489645.41223491.57305944.4990212.30857046.30375205.55101869.60750409.72734467.91125613.08816299.13017944.15428523.26035889.19836673.39053833.15428523.21696574.19836673.47732464.22040747.71598695z"/>
        <path fill="rgb(255,255,255)" fill-rule="evenodd" d="M52.96391648 59.4269168h-1.3444856v-1.23670473h3.92325307v1.23670473H54.2202391v6.96460033h-1.25632262V59.4269168z"/>
        <path fill="rgb(255,255,255)" fill-rule="evenodd" d="M76.1728237 66.5c-.55101868 0-1.03591513-.19526917-1.41060784-.5858075-.3746927-.39053834-.57305944-.8461664-.57305944-1.38858075v-4.49119087c0-.54241435.19836673-1.01973899.59510019-1.38858075.39673346-.36884176.85958916-.56411093 1.41060785-.56411093.55101869 0 1.03591513.19526917 1.41060784.5858075.39673346.39053834.57305944.8461664.57305944 1.38858076v.93295269h-1.3004041v-.95464927c0-.19526917-.06612225-.36884176-.22040749-.4990212-.13224448-.13017945-.30857046-.21696575-.50693719-.21696575-.19836673 0-.3746927.06508972-.5069372.21696574-.13224448.13017945-.22040747.30375204-.22040747.49902121v4.49119087c0 .19526916.06612224.36884176.22040748.4990212.13224448.13017945.30857046.21696574.50693719.21696574.19836673 0 .3746927-.06508972.5069372-.21696574.13224448-.13017944.22040747-.30375204.22040747-.4990212v-1.6055465h-.70530392v-1.23670473h2.00570803v2.8639478c0 .54241436-.19836673 1.01973899-.59510019 1.38858075C77.1866981 66.30473083 76.7238424 66.5 76.17282371 66.5z"/>
        <path fill="rgb(255,255,255)" fill-rule="evenodd" d="M91.07237178 58.6458441c-.3746954-.3905423-.85958781-.58581015-1.4106065-.58581015-.5289766 0-1.01387574.19526784-1.4106065.56411225-.3967375.3688378-.59510288.84616508-.59510288 1.38857943v4.49119351c0 .54241436.17632329.99803712.57306078 1.38857943.37468867.39053569.85958781.58580353 1.4106065.58580353.5510187 0 1.01387574-.19526784 1.4106065-.56410563.3967375-.36884441.59510288-.8461717.59510288-1.38858605v-4.4911869c0-.54241435-.19836538-.99804373-.57306078-1.38857942zm-.9257141.86785635c.1542812.13018077.22040748.30375072.22040748.49901856v4.49119351c0 .19526785-.08816164.36884441-.22040747.49901856-.13224583.15187867-.30856912.21696574-.50694123.21696574-.19836539 0-.37468868-.08678497-.5069345-.21696574-.15428793-.13017415-.22040748-.30375071-.22040748-.49901856v-4.49119351c0-.19526784.08816164-.36883779.22040747-.49901856.13224583-.15187867.30856912-.21696574.5069345-.21696574.19837212 0 .3746954.08678497.50694124.21696574z"/>
        <path fill="rgb(255,255,255)" fill-rule="evenodd" d="M104.6494696 66.39151713h-3.43835662V58.1685155h1.25632262v6.9862969h2.182034v1.23670473z"/>
        <path fill="rgb(255,255,255)" fill-rule="evenodd" d="M115.22902846 66.39151713h-1.25632262V58.1685155h3.59264186v1.23670473h-2.33631924v2.23474714h1.69713756v1.23670473h-1.69713756v3.51484503z"/>
      </g>
      <g>
        <path fill="rgb(255,255,255)" fill-rule="evenodd" d="M55.56472605 38.79347538c.02203873 6.14013116 5.26773733 11.45579185 11.59343458 11.34730898 6.28161307.10848287 11.61546995-5.18547992 11.61546995-11.39070147-.0220421-6.22691945-5.31182152-11.39070312-11.5713925-11.41239937-6.3697747-.02169624-11.65955413 5.2505703-11.63751203 11.45579186zm10.60159421-10.89168291c.33061122-.0216946.68326452-.0216946 1.01387574-.04339249 3.39427378.0216979 6.17140932 1.34518694 8.48568782 3.86199088.68326452.7593801 1.21224112 1.62724306 1.47673278 2.62528349.1763233.71598761.22040748 1.45367312.19836539 2.19135532-.0220421.3688411-.13224584.71598761-.37468868 1.04143623-.17633001.23866033-.33061121.47732397-.48489914.7159876-.1983721.30375072-.24244956.65089723-.13224583 1.01973833 0 .0216946.0220421.04339249.0220421.06509039.28652702.7376822.1322391 1.1282212-.63918707 1.71402804-.1322391.08678497-.26448493.15187536-.39673076.21696574-.61713824.23866364-.85958781.71598761-.8816299 1.34518694-.01459608.1580497-.00984731.30659124-.00497074.45889367.00246855.07710799.00497073.15502377.00497073.23539604.0220421.54241436-.22040747.88956087-.72734198 1.04143623-.22040747.06509038-.46285704.15187536-.68326452.21696574-.3526533.13018077-.61714497.3688411-.79346826.71598761-.06611955.13018077-.11020373.26035823-.17632329.390539-.24244956.52071646-.57306078.71598761-1.16816365.65089723-.24244285-.0216979-.46285032-.04339249-.7052999-.10848287-.7053066-.17357326-1.30040276.02169458-1.85142145.43393148-.15428792.10848287-.30857584.21696574-.46285704.3471432-.3967375.34714651-.96979155.26036154-1.30040276-.02169459-.41877959-.3471465-.83755245-.6942897-1.41061323-.781078-.24244284-.02169458-.48489241-.02169458-.72734198 0-.3746954.0216979-.74938407.0867883-1.12407947.13018078-.30856913.02169458-.5510187-.10848287-.72734198-.3688411-.13224584-.17357326-.22040748-.36884441-.30856913-.56411226-.1983721-.45562938-.55101869-.7376822-1.03591782-.86786297-.1763233-.04339248-.35265331-.10848287-.5289766-.15187535-.50694123-.15187536-.74938407-.49902187-.7273487-1.01973833v-.82447048c-.02203537-.60750474-.37468868-.97634584-.90366528-1.25840197-.30857584-.15187536-.57306078-.3688411-.81551035-.58580684-.33061121-.30375403-.41877286-.71598761-.26449166-1.1282212.24244957-.60750474.13224583-1.1499191-.28652703-1.64894096-.08816164-.10848288-.15428792-.21696575-.24244957-.32544862-.46285704-.54241435-.5289766-1.1499191-.44081495-1.8225109.17633002-1.34519026.63918034-2.58189433 1.4106065-3.68841763.59510288-.86786297 1.38857114-1.56215599 2.24815895-2.19135532 1.60897188-1.19331158 3.46040006-1.8442088 5.46610271-2.01778206zm11.240788 10.39266104c.04407746.15187867.06611956.32544861.1322391.54241435-.08816164.21696575-.15428119.47732728-.28652702.69429303-.11020374.19526784-.26449166.15187535-.3746954-.0433958-.17632329-.32544861-.06611955-1.01973833.19837211-1.25839866.11020374-.13018077.26448494-.10848287.33061121.06508708zm-19.85871493.7159876c-.08816164-.21696573-.1542812-.47732727-.28652703-.7159876-.08816164-.17357326-.28653375-.17357326-.3746954-.0216979-.19836538.30375402-.08816164 1.06313412.19836539 1.30179445.13224583.10848287.24244956.08678829.30857584-.06509038.06611956-.13017746.08816165-.28205282.1542812-.49901856zm-.8816299 1.60554518c-.22040748.30375071.11020373 1.36688484.48489913 1.56215268.19836539-.28205613-.08816837-1.25840197-.48489913-1.56215268zm20.56401482 1.62724306c-.22040748-.30375071.11020374-1.34518694.48489913-1.56215268.1763233.34714651-.15428792 1.34518694-.48489913 1.56215268zm-18.07341304.95464795c-.06611955-.49902187-.22040747-.84616507-.55101869-1.1282212-.08816164-.06509039-.24244956-.10848287-.30856912-.08678497-.08816164.04339248-.13224583.19526784-.13224583.30375071 0 .41223359.1763233.781078.48489914 1.04143623.08816165.08678497.26448494.15187535.35264658.10848287.06612628 0 .11020374-.17357326.15428792-.23866364zm15.97954202.0216979c.02204209.06509038.06611955.23866364.15428792.26035822.11020374.0216979.26448493-.02169458.37468867-.10848287.30856912-.26035823.48489914-.60750143.50694123-.99804043 0-.13018077-.06612628-.30375402-.15428792-.3471465-.06611955-.0433925-.26449166.02169789-.3526533.10848286-.30856913.23866364-.46285705.58580685-.5289766 1.08482871zm-15.86933828 2.56019642c.06612628-.390539-.57305405-1.23670738-.96979155-1.32349236-.08816164.34714651.5510187 1.21500948.96979155 1.32349236zm15.89138037.08678497c-.04407746-.02169459-.06611955-.02169459-.08816165-.04339249 0-.08678497 0-.17357325.0220421-.21696574.17632329-.41223359.44081495-.7593801.81550362-1.04143623.04408419-.02169458.11020374-.04339248.15428792-.02169458.0440842 0 .06611956.08678497.0440842.13017746-.19837212.49902186-.50694124.88956086-.9477562 1.19331158zm-1.5648877-.7376822c.22040748-.04339249.35264658.06509038.33061121.28205613-.02204209.0216979-.04408418.08678497-.04408418.15187535-.19836539.34714651-.48489914.58580684-.85958781.73768551-.11020374.04339249-.28653376.0216946-.3967375-.0433958-.06611955-.02169458-.04407746-.21696574 0-.3254486.17633002-.4122336.50694123-.69428972.96979828-.8027726zm-12.14446 1.23670407c.22040748 0 .33061121-.10848287.28652703-.28205613-.08816165-.3688411-.6832578-.91125546-1.07999529-.95464794-.19836538-.0216979-.30856912.10848287-.28652703.28205281.06611956.36884442.68326452.93295336 1.07999529.95465126zm3.01788336.55907678c.0293603.00247966.05960849.00503547.0898634.00503547.3526533 0 .66122242.08678497.94774945.30375072.08816837.06509038.17633002.21696574.15428793.30375071-.0220421.08678828-.1763233.17357326-.28652703.19527116-.44081495.06509038-.83755245-.0433925-1.19020575-.30375403-.08816165-.06508707-.1763233-.21696574-.1542812-.30375072.0220421-.08678497.17632329-.15187535.28652703-.19526784.04343173-.01424897.096361-.00978292.15258617-.00503547zm4.65230084.82950264c0 .0216979-.0220421.0433958-.0220421.06509039-.15428792-.08678497-.3746954-.15187536-.46285704-.26035823-.08364157-.2058387.11045261-.31403686.2623258-.39869971.00821281-.0045753.01629783-.00908438.02420796-.01353388.30856912-.19527115.6832578-.23866364 1.0359111-.19527115.11020374.0216979.24244957.10848287.28653375.19527115.0400215.05909814-.04714465.17185504-.11302878.25707408-.0066725.00863745-.01312974.01699349-.01921705.02497874-.19836538.19527115-.61714497.32544861-.99183364.32544861zm-6.06120559.39054231c.0220421.02169459.0220421.06509039.04408419.13017746h-.19837211c-.46285032-.10848287-.8816299-.32544861-1.21224112-.65089723-.04407746-.04339248-.04407746-.10848287-.06611955-.15187535.04408418-.0216946.08816164-.04339249.13224583-.04339249.5069345.13018077.94774945.34714651 1.30040276.71598761zm9.56568311-.69429302c-.50694123.10848287-.94775618.34714651-1.30040276.71598761-.0220421.02169459-.04408418.08678497-.0220421.10848287.02216317.0217939.06615992.06507052.11020375.04339249.5069345-.08678498.94774945-.32544862 1.30040276-.69428972.0220421-.0216979.04408418-.08678828.0220421-.13018077 0-.02169458-.06612629-.02169458-.11020375-.04339248z"/>
        <path fill="rgb(255,255,255)" fill-rule="evenodd" d="M67.88550261 44.73833605c-.11020374-.23866231 0-.69429037.24244822-.93295269.22040748-.21696574.61714094-.28205546.90367066-.13017944.17632598.10848287.30857046.26035889.44081495.4122349.0440815.04339315.0440815.13017945.06612224.19526917-.06612224.02169658-.13224449.04339315-.19836673.04339315-.22040747.02169658-.4628557 0-.68326317.04339315-.26448898.10848287-.5069372.2603589-.77142617.36884176z"/>
        <path fill="rgb(255,255,255)" fill-rule="evenodd" d="M71.89691867 42.69885808c-.57305943.19526916-1.10203738.43393148-1.3444856 1.01973898-.22040748-.13017944-.30857047-.4122349-.24244822-.80277324.0440815-.30375204.26448897-.54241436.57305943-.62920066.33061122-.06508972.77142617.0867863 1.0138744.41223492z"/>
        <path fill="rgb(255,255,255)" fill-rule="evenodd" d="M63.8961273 43.74029364c-.11020374-.15187602-.17632599-.28205547-.28652972-.41223491-.22040748-.28205547-.52897795-.43393149-.85958916-.54241436-.06612224-.02169657-.13224449-.0867863-.19836673-.13017944.0440815-.06508973.088163-.13017945.15428523-.1735726.22040748-.15187602.4628557-.23866231.74938542-.19526917.30857047.06508973.5510187.21696575.61714093.52071779.088163.32544861.088163.65089722-.17632598.93295269z"/>
        <path fill="rgb(255,255,255)" fill-rule="evenodd" d="M66.43081327 44.76003263c-.02204075-.02169658-.088163-.02169658-.11020374-.04339315-.3746927-.30375204-.81550766-.41223491-1.27836336-.36884176-.088163 0-.17632598-.02169658-.26448897-.04339315.02204075-.0867863.0440815-.1735726.08816299-.2603589.26448897-.4122349.68326317-.54241435 1.07999663-.39053833.37469271.15187602.59510019.65089723.5069372 1.06313214.02204074.02169657 0 .02169657-.02204075.04339315z"/>
        <path fill="rgb(255,255,255)" fill-rule="evenodd" d="M64.24877926 45.69298532c-.48489645-.39053834-.9257114-.7593801-1.58693383-.73768353.0440815-.23866231.22040747-.3254486.39673346-.39053833.35265196-.13017945.68326317-.0867863.96979289.1735726.24244822.2386623.33061121.54241435.22040748.95464926z"/>
        <path fill="rgb(255,255,255)" fill-rule="evenodd" d="M75.59976427 39.24910277c-.55101869.39053834-.70530392.95464927-.85958916 1.5187602-.39673345-.23866232-.52897794-.71598695-.33061121-1.10652529.19836673-.4122349.66122243-.5858075 1.19020037-.4122349z"/>
        <path fill="rgb(255,255,255)" fill-rule="evenodd" d="M68.0177471 46.27879282c-.57305944-.28205546-1.14611888-.19526917-1.69713757-.04339315-.02204075-.43393148.3746927-.78107667.8375484-.78107667.48489646.02169658.88162991.36884176.85958917.82446982z"/>
        <path fill="rgb(255,255,255)" fill-rule="evenodd" d="M71.69855194 44.9553018c-.61714093.02169657-1.10203738.34714518-1.54285233.73768352-.24244822-.34714519 0-.91125612.4628557-1.10652529.4187742-.15187602.94775215 0 1.07999663.36884176z"/>
        <path fill="rgb(255,255,255)" fill-rule="evenodd" d="M61.51572655 43.9355628c-.24244822-.54241435-.48489644-1.06313213-1.03591513-1.3451876.22040747-.28205546.81550766-.19526916 1.05795588.0867863.37469271.39053834.39673346.9329527-.02204075 1.2584013z"/>
        <path fill="rgb(255,255,255)" fill-rule="evenodd" d="M73.72630072 42.5903752c-.19836672.21696575-.44081495.41223491-.59510018.62920066-.15428523.21696574-.26448897.47732463-.4187742.73768352-.35265197-.30375204-.37469271-.8461664-.088163-1.19331158.28652972-.32544862.79346692-.41223491 1.10203738-.1735726z"/>
        <path fill="rgb(255,255,255)" fill-rule="evenodd" d="M59.48797777 40.72446982c-.0440815-.0867863-.08816299-.1735726-.08816299-.26035889-.06612224-.43393148-.28652972-.80277325-.59510018-1.12822186-.0440815-.04339315-.06612224-.10848287-.088163-.15187602.06612225-.02169657.11020375-.06508972.17632599-.06508972.4187742-.04339315.81550766.19526917.94775215.54241435.11020373.3471452.06612224.80277325-.35265197 1.06313214z"/>
        <path fill="rgb(255,255,255)" fill-rule="evenodd" d="M75.86425324 36.4502447c.06612224-.19526917.11020374-.41223491.17632598-.60750408.02204075-.06508972.13224449-.15187602.19836673-.15187602s.15428523.0867863.17632598.15187602c.15428523.41223491.13224449.82446982-.08816299 1.21500816-.02204075.06508972-.11020374.13017944-.17632598.13017944s-.15428523-.0867863-.17632598-.15187602c-.0440815-.19526917-.06612224-.36884176-.11020374-.5858075z"/>
        <path fill="rgb(255,255,255)" fill-rule="evenodd" d="M57.7908402 36.3634584c.0440815-.21696574.06612225-.4122349.15428524-.60750408.06612224-.1735726.22040748-.1735726.30857047-.02169657.22040747.4122349.24244822.82446982.08816299 1.2584013-.02204075.06508973-.11020374.13017945-.15428523.13017945-.06612225 0-.17632599-.06508972-.19836673-.10848287-.06612225-.19526917-.13224449-.41223491-.19836673-.65089723z"/>
      </g>
    </g>
  </g>
</svg>
