<svg xmlns="http://www.w3.org/2000/svg" xmlns:xlink="http://www.w3.org/1999/xlink" width="27" height="27" viewBox="0 0 27 27">
  <defs>
    <rect id="rect-1" width="27" height="27" x="0" y="0"/>
    <mask id="mask-2" maskContentUnits="userSpaceOnUse" maskUnits="userSpaceOnUse">
      <rect width="27" height="27" x="0" y="0" fill="black"/>
      <use fill="white" xlink:href="#rect-1"/>
    </mask>
  </defs>
  <g>
    <use fill="none" xlink:href="#rect-1"/>
    <g mask="url(#mask-2)">
      <path fill="rgb(0,0,0)" fill-rule="evenodd" d="M2.7 0h21.6C25.78500259 0 27 1.21499984 27 2.7v21.6c0 1.48499935-1.21499741 2.7-2.7 2.7H2.7C1.21499741 27 0 25.78499935 0 24.3V2.7C0 1.21499984 1.21499741 0 2.7 0zm3.375 8.50500048c-1.35 0-2.4300013-1.08000048-2.4300013-2.43000008 0-1.35 1.0800013-2.43000008 2.4300013-2.43000008 1.35 0 2.4300013 1.08000008 2.4300013 2.43000008C8.5050013 7.425 7.425 8.50500048 6.075 8.50500048zM18.9 22.95h4.05v-7.69500032c0-2.56499984-2.16000259-4.725-4.725-4.725-1.21499741 0-2.7.81000016-3.375 1.89000064V10.8H10.8v12.15h4.05v-7.15499968c0-1.07994797.9449987-2.025 2.025-2.025s2.025.94505203 2.025 2.025V22.95zm-10.8 0V10.8H4.05v12.15H8.1z"/>
    </g>
  </g>
</svg>
