<svg xmlns="http://www.w3.org/2000/svg" xmlns:xlink="http://www.w3.org/1999/xlink" width="56" height="56" viewBox="0 0 56 56">
  <defs>
    <rect id="rect-1" width="56" height="56" x="0" y="0"/>
    <mask id="mask-2" maskContentUnits="userSpaceOnUse" maskUnits="userSpaceOnUse">
      <rect width="56" height="56" x="0" y="0" fill="black"/>
      <use fill="white" xlink:href="#rect-1"/>
    </mask>
  </defs>
  <g>
    <use fill="none" xlink:href="#rect-1"/>
    <g mask="url(#mask-2)">
      <path fill="rgb(255,255,255)" fill-rule="evenodd" d="M28 0C12.53839111 0 0 12.53839111 0 28s12.53839111 28 28 28 28-12.53839111 28-28S43.46160889 0 28 0zM16.40966797 19.01074219h.0444336c2.37805175 0 3.85803222-1.57525635 3.85803222-3.54400635-.0444336-2.0131836-1.47998047-3.54486084-3.81274414-3.54486084s-3.85803223 1.53167725-3.85803223 3.54486084c0 1.96875 1.47998047 3.54400635 3.76831055 3.54400635zM44.45239257 42.328125h-6.8184204V31.3526001c0-2.75830078-.98736572-4.63946533-3.45471192-4.63946533-1.88372802 0-3.00567627 1.2689209-3.49871826 2.49383544-.18029785.4383545-.2243042 1.0510254-.2243042 1.66412354V42.328125h-6.81884765s.08929443-18.59118652 0-20.51593018h6.81884765v2.9048462c.90618897-1.39794922 2.5275879-3.38635254 6.14550782-3.38635254 4.48651123 0 7.85064697 2.93218994 7.85064697 9.23364257V42.328125zm-24.58886718 0h-6.8192749V21.81219482h6.8192749V42.328125z"/>
    </g>
  </g>
</svg>
