<svg id="Layer_1" data-name="Layer 1" xmlns="http://www.w3.org/2000/svg" xmlns:xlink="http://www.w3.org/1999/xlink" viewBox="0 0 50.25 49.95"><defs><style>.cls-1,.cls-2{stroke:#e6e6e6;}.cls-1,.cls-2,.cls-5{stroke-miterlimit:10;}.cls-1{opacity:0;}.cls-11,.cls-2{fill:#fff;}.cls-2{stroke-width:0.25px;}.cls-3{fill:url(#linear-gradient);}.cls-4{fill:url(#linear-gradient-2);}.cls-5{stroke:#b3b3b3;fill:url(#radial-gradient);}.cls-6{fill:url(#linear-gradient-3);}.cls-7{fill:url(#linear-gradient-4);}.cls-8{fill:url(#linear-gradient-5);}.cls-9{fill:#297f62;}.cls-10{fill:#1961a4;}.cls-12{font-size:4.14px;fill:#1762a5;font-family:MyriadPro-Regular, Myriad Pro;}.cls-13{letter-spacing:-0.01em;}.cls-14{letter-spacing:0.02em;}.cls-15{letter-spacing:-0.03em;}.cls-16{letter-spacing:0em;}.cls-17{letter-spacing:-0.03em;}</style><linearGradient id="linear-gradient" x1="1113.04" y1="651.5" x2="1136" y2="651.5" gradientUnits="userSpaceOnUse"><stop offset="0" stop-color="#fff"/><stop offset="1" stop-color="#b3b3b3"/></linearGradient><linearGradient id="linear-gradient-2" x1="1212.83" y1="818" x2="1236.74" y2="818" gradientTransform="translate(2492.05 1163.29) rotate(165.48)" xlink:href="#linear-gradient"/><radialGradient id="radial-gradient" cx="1111" cy="663.49" r="44.25" gradientTransform="translate(-541.71 -306.88) scale(0.51 0.5)" gradientUnits="userSpaceOnUse"><stop offset="0.81" stop-color="#fff"/><stop offset="1" stop-color="#b3b3b3"/></radialGradient><linearGradient id="linear-gradient-3" x1="1149.16" y1="726.85" x2="1155.06" y2="726.85" gradientTransform="translate(2210.79 1509.68) rotate(-174.72)" gradientUnits="userSpaceOnUse"><stop offset="0" stop-color="#fff"/><stop offset="0.62" stop-color="#b3b3b3"/></linearGradient><linearGradient id="linear-gradient-4" x1="1128.67" y1="661.99" x2="1140.5" y2="661.99" gradientTransform="translate(-44.96 -7.53) rotate(-0.28)" gradientUnits="userSpaceOnUse"><stop offset="0.15" stop-color="#fff"/><stop offset="0.92" stop-color="#b3b3b3"/></linearGradient><linearGradient id="linear-gradient-5" x1="1095.69" y1="689" x2="1095.69" y2="689" xlink:href="#linear-gradient"/></defs><title>logo</title><path class="cls-1" d="M1145.5,733.5" transform="translate(-1085.88 -638.88)"/><path class="cls-2" d="M1136,663.75A25,25,0,1,1,1111,639,24.87,24.87,0,0,1,1136,663.75Z" transform="translate(-1085.88 -638.88)"/><path class="cls-3" d="M1113,639a11.73,11.73,0,0,0,1,2.5c2.81,5,8.09,5.45,12.23,8.5,2.33,1.72,5.09,4.84,6.63,11a16.41,16.41,0,0,1,1.55,1.31A15.53,15.53,0,0,1,1136,664c0-1.58-.15-12.49-9.16-19.69A25.37,25.37,0,0,0,1113,639Z" transform="translate(-1085.88 -638.88)"/><path class="cls-4" d="M1116.1,688c-.52-.33-1.35-.83-2.38-1.39-6.34-3.42-10.29-3.72-14-5.22-2.69-1.09-6.16-3.43-9.23-9a6.33,6.33,0,0,1-1.84-.89,6.53,6.53,0,0,1-2.13-2.48c.21,1.1,2.73,13.22,14.13,18A24.41,24.41,0,0,0,1116.1,688Z" transform="translate(-1085.88 -638.88)"/><ellipse class="cls-5" cx="25.12" cy="24.87" rx="22.45" ry="22.24"/><path class="cls-6" d="M1119,684.61a.89.89,0,0,0,0,.27,2.27,2.27,0,0,0,1.42,1.72,25.47,25.47,0,0,0,8.4-5.6,24.92,24.92,0,0,0,5.1-7.5c-.25-.13-.52-.27-.81-.4a11.43,11.43,0,0,0-1.63-.57A29.11,29.11,0,0,1,1119,684.61Z" transform="translate(-1085.88 -638.88)"/><path class="cls-7" d="M1100.8,644a1.28,1.28,0,0,0,.51-.5c.47-.92-.51-2.5-.51-2.5a23.66,23.66,0,0,0-7.15,4.5c-.49.46-.85.82-1,1a24.84,24.84,0,0,0-5.61,10s.06-.37.27-.44.35.12.44.15a10.83,10.83,0,0,0,1.68.42A23,23,0,0,1,1100.8,644Z" transform="translate(-1085.88 -638.88)"/><path class="cls-8" d="M1095.69,689" transform="translate(-1085.88 -638.88)"/><path class="cls-9" d="M1118.08,663.44a13.34,13.34,0,0,1-5.59,2.16l1.09,2S1116.15,667.5,1118.08,663.44Z" transform="translate(-1085.88 -638.88)"/><path class="cls-10" d="M1112.81,659.64l-3.3-2.31v2.31h1.1v1.84s-12.09.46-10.44-12c0,0-2.2,6.45-1.1,9.22h2.2s-.49,1.23-1.48,1.37h-.17s0,.92,1.65,1.84h3.85s-1.1.92-1.1,1.84a12.06,12.06,0,0,0,6,1.39,10.77,10.77,0,0,0-1.64,3.22h1.64a3.31,3.31,0,0,0,0,4.61h1.65V659.64" transform="translate(-1085.88 -638.88)"/><ellipse class="cls-11" cx="1110.34" cy="659.18" rx="2.31" ry="4.12" transform="translate(-704.97 1085.8) rotate(-86.3)"/><path class="cls-10" d="M1109.2,659.64l3.29-2.31v2.31h-1.09v1.84s12.09.46,10.44-12c0,0,2.2,6.45,1.1,9.22h-2.2s.49,1.23,1.48,1.37h.17s0,.92-1.65,1.84h-3.85s1.1.92,1.1,1.84a12.08,12.08,0,0,1-6,1.39,10.66,10.66,0,0,1,1.65,3.22h-1.65a3.3,3.3,0,0,1,0,4.61h-1.64V659.64" transform="translate(-1085.88 -638.88)"/><ellipse class="cls-11" cx="1111.67" cy="659.18" rx="4.12" ry="2.31" transform="translate(-1126.08 -565.79) rotate(-3.7)"/><rect class="cls-11" x="24.61" y="32.13" width="1.02" height="9"/><rect class="cls-9" x="24.82" y="32.13" width="0.56" height="9.5"/><polygon class="cls-9" points="24.11 22.63 24.11 20.96 23.08 21.51 26.66 17.63 26.66 19.85 26.66 20.4 26.66 20.96 25.64 20.96 25.64 22.63 24.11 22.63"/><path class="cls-9" d="M1103.8,663.55a13.15,13.15,0,0,0,5.65,1.83l-1,2S1106,667.48,1103.8,663.55Z" transform="translate(-1085.88 -638.88)"/><text class="cls-12" transform="translate(26.39 39.59) scale(1.01 1)"><tspan class="cls-13">M</tspan><tspan x="3.29" y="0">A</tspan><tspan class="cls-14" x="5.82" y="0">K</tspan><tspan class="cls-15" x="8.15" y="0">T</tspan><tspan class="cls-16" x="10.1" y="0">O</tspan></text><text class="cls-12" transform="translate(11.86 39.59) scale(0.99 1)"><tspan class="cls-17">T</tspan><tspan x="1.95" y="0">ORUK</tspan></text></svg>