<svg xmlns="http://www.w3.org/2000/svg" xmlns:xlink="http://www.w3.org/1999/xlink" width="24" height="24" viewBox="0 0 24 24">
  <defs>
    <rect id="rect-1" width="18" height="18" x="3" y="3"/>
    <mask id="mask-2" maskContentUnits="userSpaceOnUse" maskUnits="userSpaceOnUse">
      <rect width="24" height="24" x="0" y="0" fill="black"/>
      <use fill="white" xlink:href="#rect-1"/>
    </mask>
  </defs>
  <g>
    <use fill="none" xlink:href="#rect-1"/>
    <g mask="url(#mask-2)">
      <path fill="rgb(212,45,15)" fill-rule="evenodd" d="M12 21c-4.96279907 0-9-4.03720093-9-9s4.03720093-9 9-9 9 4.03720093 9 9-4.03720093 9-9 9zm0-16.875c-4.34248352 0-7.875 3.53251648-7.875 7.875S7.65751648 19.875 12 19.875s7.875-3.53251648 7.875-7.875S16.34248352 4.125 12 4.125z"/>
      <path fill="rgb(212,45,15)" fill-rule="evenodd" d="M11.15625 14.99995418c-.14405836 0-.28797926-.05465707-.39756762-.16493238L8.3212282 12.39756762c-.21972656-.21986403-.21972656-.57609563 0-.79582219.21972657-.21972656.57595817-.21972656.7958222 0l2.03988655 2.04002367 4.47761532-4.47747785c.21972656-.21972656.57595816-.21972656.79568472 0 .21972656.21972656.21972656.57595816 0 .79568473l-4.87504582 4.87504582c-.11096191.1102753-.25488281.16493238-.39894117.16493238z"/>
    </g>
  </g>
</svg>
