<svg xmlns="http://www.w3.org/2000/svg" xmlns:xlink="http://www.w3.org/1999/xlink" width="24" height="24" viewBox="0 0 24 24">
  <defs>
    <rect id="rect-1" width="18" height="18" x="3" y="3"/>
    <mask id="mask-2" maskContentUnits="userSpaceOnUse" maskUnits="userSpaceOnUse">
      <rect width="24" height="24" x="0" y="0" fill="black"/>
      <use fill="white" xlink:href="#rect-1"/>
    </mask>
  </defs>
  <g>
    <use fill="none" xlink:href="#rect-1"/>
    <g mask="url(#mask-2)">
      <path fill="rgb(204,204,204)" fill-rule="evenodd" d="M12 3c-4.96279907 0-9 4.03720093-9 9s4.03720093 9 9 9 9-4.03720093 9-9-4.03720093-9-9-9zm3.31430054 11.25370789c.29319763.29333496.29319763.76725769 0 1.06059265-.1462555.14625549-.33824158.21972656-.530365.21972656-.19198608 0-.38397216-.07347107-.53022765-.21972656L12 13.06045532l-2.25370789 2.25384522c-.14625549.14625549-.33824157.21972656-.53022766.21972656-.19212341 0-.3841095-.07347107-.53036499-.21972656-.29319763-.29333496-.29319763-.7672577 0-1.06059265L10.93954468 12 8.68569946 9.74629211c-.29319763-.29333496-.29319763-.76725769 0-1.06059265.29333496-.29319763.7672577-.29319763 1.06059265 0L12 10.93954468l2.25370789-2.25384522c.29333496-.29319763.76725769-.29319763 1.06059265 0 .29319763.29333496.29319763.7672577 0 1.06059265L13.06045532 12l2.25384522 2.25370789z"/>
    </g>
  </g>
</svg>
